# xmcd
#
# Track frame offsets:
#	150
#	12994
#	23463
#	40216
#	56206
#	70156
#	87044
#	101626
#	109447
#	122034
#	135154
#	149675
#	162860
#	175151
#
# Disc length: 2583 seconds
#
# Revision: 1
# Processed by: cddbd v1.5.1PL2 Copyright (c) Steve Scherf et al.
# Submitted via: audiograbber 1.83.01
#
DISCID=ba0a150e
DTITLE=Media Markt Kollektion - Die besten Songs von der Waterkant
DYEAR=2006
DGENRE=Volksmusik
TTITLE0=Freddy Quinn - Mein Hamburg
TTITLE1=Heid Kabel - Hamburg ist ein schönes Städtchen
TTITLE2=Freddy Quinn&Heidi Kabel - Das gibt´s nur auf der Reeperbahn bei Nacht
TTITLE3=Lale Andersen - Unter der roten Laterne von St. Pauli
TTITLE4=Hans Albers - Auf der Reeperbahn nachts um halb eins
TTITLE5=Freddy Quinn - Der Junge von St. Pauli
TTITLE6=Heidi Kabel - Hummel Hummel - Mors Mors
TTITLE7=Hans Sikorski Kg - In Hamburg vor Anker
TTITLE8=Freddy Quinn - Der Hamburger Veermaster
TTITLE9=Lolita - Seemann, deine Heimat ist das Meer
TTITLE10=Freddy Quinn - Junge komm bald wieder
TTITLE11=Grosser Shanty-Chor - Hamburg, hol di stief!
TTITLE12=Heidi Kabel - In Hamburg sagt man "Tschüss"
TTITLE13=Freddy Quinn - La Paloma
EXTD=
EXTT0=
EXTT1=
EXTT2=
EXTT3=
EXTT4=
EXTT5=
EXTT6=
EXTT7=
EXTT8=
EXTT9=
EXTT10=
EXTT11=
EXTT12=
EXTT13=
PLAYORDER=
